<svg xmlns="http://www.w3.org/2000/svg" xmlns:xlink="http://www.w3.org/1999/xlink" x="0" y="0" width="286" height="369" style="
        width:286px;
        height:369px;
        background: transparent;
        fill: none;
">
        
        
        <svg xmlns="http://www.w3.org/2000/svg" class="role-diagram-draw-area" style="overflow: visible;"><g class="shapes-region" style="stroke: black; fill: none;"><g class="composite-shape"><path class="real" d=" M44.17,146.5 C44.17,141.62 48.12,137.67 53,137.67 C57.88,137.67 61.83,141.62 61.83,146.5 C61.83,151.38 57.88,155.33 53,155.33 C48.12,155.33 44.17,151.38 44.17,146.5 Z" style="stroke-width: 1; stroke: rgb(0, 0, 0); fill: none; fill-opacity: 1;"/></g><g class="composite-shape"><defs><!-- react-text: 19864 --> <!-- /react-text --><filter id="_bsdbfmxv27a4dg-full-view" height="150%" width="150%" filterUnits="userSpaceOnUse"><feGaussianBlur in="SourceGraphic" stdDeviation="0"/><feOffset dx="1" dy="1" result="offsetblur"/><feFlood flood-color="rgb(18,6,114)" flood-opacity="1"/><feComposite in2="offsetblur" operator="in"/><feMerge><feMergeNode/><feMergeNode in="SourceGraphic"/></feMerge></filter></defs><path class="real" d=" M12,55.33 L95,55.33 L95,92 L12,92 Z" style="stroke-width: 1; stroke: rgb(0, 0, 0); fill: rgb(74, 144, 226); fill-opacity: 1; filter: url(&quot;#_bsdbfmxv27a4dg-full-view&quot;);"/></g><g class="composite-shape"><path class="real" d=" M44,104.93 L49,104.93 L49,97.33 L59,97.33 L59,104.93 L64,104.93 L54,110 Z" style="stroke-width: 1; stroke: rgb(0, 0, 0); fill: rgb(155, 155, 155); fill-opacity: 1;"/></g><g class="composite-shape"><path class="real" d=" M22,169.67 C22,165.06 25.73,161.33 30.33,161.33 C34.94,161.33 38.67,165.06 38.67,169.67 C38.67,174.27 34.94,178 30.33,178 C25.73,178 22,174.27 22,169.67 Z" style="stroke-width: 1; stroke: rgb(0, 0, 0); fill: none; fill-opacity: 1;"/></g><g class="composite-shape"><path class="real" d=" M67.67,169.67 C67.67,165.06 71.4,161.33 76,161.33 C80.6,161.33 84.33,165.06 84.33,169.67 C84.33,174.27 80.6,178 76,178 C71.4,178 67.67,174.27 67.67,169.67 Z" style="stroke-width: 1; stroke: rgb(0, 0, 0); fill: none; fill-opacity: 1;"/></g><g class="arrow-line"><path class="connection real" stroke-dasharray="" d="  M35.33,158.33 L44.33,150.33" style="stroke: rgb(0, 0, 0); stroke-width: 1; fill: none; fill-opacity: 1;"/></g><g class="arrow-line"><path class="connection real" stroke-dasharray="" d="  M61,151.33 L69,160.33" style="stroke: rgb(0, 0, 0); stroke-width: 1; fill: none; fill-opacity: 1;"/></g><g class="composite-shape"><path class="real" d=" M44,43.93 L49,43.93 L49,36.33 L59,36.33 L59,43.93 L64,43.93 L54,49 Z" style="stroke-width: 1; stroke: rgb(0, 0, 0); fill: rgb(155, 155, 155); fill-opacity: 1;"/></g><g class="composite-shape"><path class="real" d=" M43,181.6 L48,181.6 L48,174 L58,174 L58,181.6 L63,181.6 L53,186.67 Z" style="stroke-width: 1; stroke: rgb(0, 0, 0); fill: rgb(155, 155, 155); fill-opacity: 1;"/></g><g class="composite-shape"><defs><!-- react-text: 19894 --> <!-- /react-text --><filter id="_bsdhwz4rl8x8dg-full-view" height="150%" width="150%" filterUnits="userSpaceOnUse"><feGaussianBlur in="SourceGraphic" stdDeviation="0"/><feOffset dx="1" dy="1" result="offsetblur"/><feFlood flood-color="rgb(18,6,114)" flood-opacity="1"/><feComposite in2="offsetblur" operator="in"/><feMerge><feMergeNode/><feMergeNode in="SourceGraphic"/></feMerge></filter></defs><path class="real" d=" M13,285.33 L96,285.33 L96,322 L13,322 Z" style="stroke-width: 1; stroke: rgb(0, 0, 0); fill: rgb(74, 144, 226); fill-opacity: 1; filter: url(&quot;#_bsdhwz4rl8x8dg-full-view&quot;);"/></g><g class="composite-shape"><path class="real" d=" M44,333.53 L49,333.53 L49,325.93 L59,325.93 L59,333.53 L64,333.53 L54,338.6 Z" style="stroke-width: 1; stroke: rgb(0, 0, 0); fill: rgb(155, 155, 155); fill-opacity: 1;"/></g><g class="composite-shape"><path class="real" d=" M45,352.67 C45,348.06 48.73,344.33 53.33,344.33 C57.94,344.33 61.67,348.06 61.67,352.67 C61.67,357.27 57.94,361 53.33,361 C48.73,361 45,357.27 45,352.67 Z" style="stroke-width: 1; stroke: rgb(0, 0, 0); fill: none; fill-opacity: 1;"/></g><g class="composite-shape"><path class="real" d=" M23,121.33 C23,117.47 36.43,114.33 53,114.33 C69.57,114.33 83,117.47 83,121.33 C83,125.2 69.57,128.33 53,128.33 C36.43,128.33 23,125.2 23,121.33 Z" style="stroke-width: 1; stroke: rgb(0, 0, 0); fill: none; fill-opacity: 1;"/></g><g class="arrow-line"><path class="connection real" stroke-dasharray="" d="  M53,128.33 L53,137.67" style="stroke: rgb(0, 0, 0); stroke-width: 1; fill: none; fill-opacity: 1;"/></g><g class="composite-shape"><defs><!-- react-text: 19917 --> <!-- /react-text --><filter id="_bsdzsgs2vssddg-full-view" height="150%" width="150%" filterUnits="userSpaceOnUse"><feGaussianBlur in="SourceGraphic" stdDeviation="0"/><feOffset dx="1" dy="1" result="offsetblur"/><feFlood flood-color="rgb(18,6,114)" flood-opacity="1"/><feComposite in2="offsetblur" operator="in"/><feMerge><feMergeNode/><feMergeNode in="SourceGraphic"/></feMerge></filter></defs><path class="real" d=" M12,190.67 L96,190.67 L96,227.33 L12,227.33 Z" style="stroke-width: 1; stroke: rgb(0, 0, 0); fill: rgb(74, 144, 226); fill-opacity: 1; filter: url(&quot;#_bsdzsgs2vssddg-full-view&quot;);"/></g><g class="composite-shape"><path class="real" d=" M45.17,240.5 C45.17,235.62 49.12,231.67 54,231.67 C58.88,231.67 62.83,235.62 62.83,240.5 C62.83,245.38 58.88,249.33 54,249.33 C49.12,249.33 45.17,245.38 45.17,240.5 Z" style="stroke-width: 1; stroke: rgb(0, 0, 0); fill: none; fill-opacity: 1;"/></g><g class="composite-shape"><path class="real" d=" M23,263.67 C23,259.06 26.73,255.33 31.33,255.33 C35.94,255.33 39.67,259.06 39.67,263.67 C39.67,268.27 35.94,272 31.33,272 C26.73,272 23,268.27 23,263.67 Z" style="stroke-width: 1; stroke: rgb(0, 0, 0); fill: none; fill-opacity: 1;"/></g><g class="composite-shape"><path class="real" d=" M68.67,263.67 C68.67,259.06 72.4,255.33 77,255.33 C81.6,255.33 85.33,259.06 85.33,263.67 C85.33,268.27 81.6,272 77,272 C72.4,272 68.67,268.27 68.67,263.67 Z" style="stroke-width: 1; stroke: rgb(0, 0, 0); fill: none; fill-opacity: 1;"/></g><g class="arrow-line"><path class="connection real" stroke-dasharray="" d="  M36.33,252.33 L45.33,244.33" style="stroke: rgb(0, 0, 0); stroke-width: 1; fill: none; fill-opacity: 1;"/></g><g class="arrow-line"><path class="connection real" stroke-dasharray="" d="  M62,245.33 L70,254.33" style="stroke: rgb(0, 0, 0); stroke-width: 1; fill: none; fill-opacity: 1;"/></g><g class="composite-shape"><path class="real" d=" M44,275.6 L49,275.6 L49,268 L59,268 L59,275.6 L64,275.6 L54,280.67 Z" style="stroke-width: 1; stroke: rgb(0, 0, 0); fill: rgb(155, 155, 155); fill-opacity: 1;"/></g><g/></g><g/><g><g><circle cx="117.5" cy="40.5" r="13.729530217745982" style="stroke: rgb(0, 0, 0); stroke-width: 1; fill: rgb(155, 155, 155); fill-opacity: 0.63;"/></g><g><circle cx="117.5" cy="129.5" r="13.729530217745982" style="stroke: rgb(0, 0, 0); stroke-width: 1; fill: rgb(155, 155, 155); fill-opacity: 0.63;"/></g><g><circle cx="117.5" cy="213.5" r="13.729530217745982" style="stroke: rgb(0, 0, 0); stroke-width: 1; fill: rgb(155, 155, 155); fill-opacity: 0.63;"/></g><g><circle cx="114.5" cy="303.5" r="13.729530217745982" style="stroke: rgb(0, 0, 0); stroke-width: 1; fill: rgb(155, 155, 155); fill-opacity: 0.63;"/></g></g><g/></svg>
        <svg xmlns="http://www.w3.org/2000/svg" xmlns:xlink="http://www.w3.org/1999/xlink" width="284" height="367" style="width:284px;height:367px;font-family:Asana-Math, Asana;background:transparent;"><g><g><g><text x="32.99481201171875" y="67.32292175292969" style="white-space:pre;stroke:none;fill:rgb(0,0,0);fill-opacity:1;font-size:13.5px;font-family:Arial, Helvetica, sans-serif;font-weight:400;font-style:normal;dominant-baseline:text-before-edge;text-decoration:none solid rgb(0, 0, 0);">Reader</text></g></g></g><g transform="matrix(0.9998537262811577,0.017103392695130695,0.00034911901582720603,1.000152267111144,-0.04315515344342202,-0.9429897114279129)"><g><g><text x="49.4583740234375" y="139.1666717529297" style="white-space:pre;stroke:none;fill:rgb(0,0,0);fill-opacity:1;font-size:12px;font-family:Arial, Helvetica, sans-serif;font-weight:400;font-style:normal;dominant-baseline:text-before-edge;text-decoration:none solid rgb(0, 0, 0);">1</text></g></g></g><g transform="matrix(0.9998537262811577,0.017103392695130695,0.00034911901582720603,1.000152267111144,-0.05490153828194266,-0.5618510948854976)"><g><g><text x="26.9583740234375" y="163.3854217529297" style="white-space:pre;stroke:none;fill:rgb(0,0,0);fill-opacity:1;font-size:12px;font-family:Arial, Helvetica, sans-serif;font-weight:400;font-style:normal;dominant-baseline:text-before-edge;text-decoration:none solid rgb(0, 0, 0);">+</text></g></g></g><g transform="matrix(0.9998537262811577,0.017103392695130695,0.00034911901582720603,1.000152267111144,-0.047652912450715235,-1.3483803474084368)"><g><g><text x="72.9583740234375" y="161.8958282470703" style="white-space:pre;stroke:none;fill:rgb(0,0,0);fill-opacity:1;font-size:12px;font-family:Arial, Helvetica, sans-serif;font-weight:400;font-style:normal;dominant-baseline:text-before-edge;text-decoration:none solid rgb(0, 0, 0);">1</text></g></g></g><g><g><g><text x="8" y="11" style="white-space:pre;stroke:none;fill:rgb(0,0,0);fill-opacity:1;font-size:15px;font-family:Arial, Helvetica, sans-serif;font-weight:400;font-style:normal;dominant-baseline:text-before-edge;text-decoration:none solid rgb(0, 0, 0);">(infix (1 + 1))</text></g></g></g><g><g><g><text x="113" y="32" style="white-space:pre;stroke:none;fill:rgb(0,0,0);fill-opacity:1;font-size:15px;font-family:Arial, Helvetica, sans-serif;font-weight:400;font-style:normal;dominant-baseline:text-before-edge;text-decoration:none solid rgb(0, 0, 0);">1</text></g></g></g><g><g><g><text x="142.99481201171875" y="29" style="white-space:pre;stroke:none;fill:rgb(0,0,0);fill-opacity:1;font-size:15px;font-family:Arial, Helvetica, sans-serif;font-weight:400;font-style:normal;dominant-baseline:text-before-edge;text-decoration:none solid rgb(0, 0, 0);">Text to Reader</text></g></g></g><g><g><g><text x="113" y="121.00001525878906" style="white-space:pre;stroke:none;fill:rgb(0,0,0);fill-opacity:1;font-size:15px;font-family:Arial, Helvetica, sans-serif;font-weight:400;font-style:normal;dominant-baseline:text-before-edge;text-decoration:none solid rgb(0, 0, 0);">2</text></g></g></g><g><g><g><text x="148" y="118.00001525878906" style="white-space:pre;stroke:none;fill:rgb(0,0,0);fill-opacity:1;font-size:15px;font-family:Arial, Helvetica, sans-serif;font-weight:400;font-style:normal;dominant-baseline:text-before-edge;text-decoration:none solid rgb(0, 0, 0);">Code is a list</text></g></g></g><g><g><g><text x="113" y="205.00001525878906" style="white-space:pre;stroke:none;fill:rgb(0,0,0);fill-opacity:1;font-size:15px;font-family:Arial, Helvetica, sans-serif;font-weight:400;font-style:normal;dominant-baseline:text-before-edge;text-decoration:none solid rgb(0, 0, 0);">3</text></g></g></g><g><g><g><text x="145" y="205.00001525878906" style="white-space:pre;stroke:none;fill:rgb(0,0,0);fill-opacity:1;font-size:15px;font-family:Arial, Helvetica, sans-serif;font-weight:400;font-style:normal;dominant-baseline:text-before-edge;text-decoration:none solid rgb(0, 0, 0);">to Macro</text></g></g></g><g transform="matrix(0.9998537262811577,0.017103392695130695,0.00034911901582720603,1.000152267111144,-0.11532136707116081,-0.9658811735316135)"><g><g><text x="48.9583740234375" y="345.6667022705078" style="white-space:pre;stroke:none;fill:rgb(0,0,0);fill-opacity:1;font-size:12px;font-family:Arial, Helvetica, sans-serif;font-weight:400;font-style:normal;dominant-baseline:text-before-edge;text-decoration:none solid rgb(0, 0, 0);">2</text></g></g></g><g><g><g><text x="25" y="299.3333282470703" style="white-space:pre;stroke:none;fill:rgb(0,0,0);fill-opacity:1;font-size:13.5px;font-family:Arial, Helvetica, sans-serif;font-weight:400;font-style:normal;dominant-baseline:text-before-edge;text-decoration:none solid rgb(0, 0, 0);">Evaluator</text></g></g></g><g><g><g><text x="37.99481201171875" y="112.00001525878906" style="white-space:pre;stroke:none;fill:rgb(0,0,0);fill-opacity:1;font-size:15px;font-family:Arial, Helvetica, sans-serif;font-weight:400;font-style:normal;dominant-baseline:text-before-edge;text-decoration:none solid rgb(0, 0, 0);">infix</text></g></g></g><g><g><g><text x="22" y="204.3333282470703" style="white-space:pre;stroke:none;fill:rgb(0,0,0);fill-opacity:1;font-size:10.8px;font-family:Arial, Helvetica, sans-serif;font-weight:400;font-style:normal;dominant-baseline:text-before-edge;text-decoration:none solid rgb(0, 0, 0);">Macro expand</text></g></g></g><g transform="matrix(0.9998537262811577,0.017103392695130695,0.00034911901582720603,1.000152267111144,-0.0760643444866318,-0.9602034466384737)"><g><g><text x="49.625" y="233.50001525878906" style="white-space:pre;stroke:none;fill:rgb(0,0,0);fill-opacity:1;font-size:12px;font-family:Arial, Helvetica, sans-serif;font-weight:400;font-style:normal;dominant-baseline:text-before-edge;text-decoration:none solid rgb(0, 0, 0);">+</text></g></g></g><g transform="matrix(0.9998537262811577,0.017103392695130695,0.00034911901582720603,1.000152267111144,-0.08757245205085695,-0.5932675960281699)"><g><g><text x="27.9583740234375" y="257.3854217529297" style="white-space:pre;stroke:none;fill:rgb(0,0,0);fill-opacity:1;font-size:12px;font-family:Arial, Helvetica, sans-serif;font-weight:400;font-style:normal;dominant-baseline:text-before-edge;text-decoration:none solid rgb(0, 0, 0);">1</text></g></g></g><g transform="matrix(0.9998537262811577,0.017103392695130695,0.00034911901582720603,1.000152267111144,-0.08032382621962597,-1.3797968485511092)"><g><g><text x="73.9583740234375" y="255.8958282470703" style="white-space:pre;stroke:none;fill:rgb(0,0,0);fill-opacity:1;font-size:12px;font-family:Arial, Helvetica, sans-serif;font-weight:400;font-style:normal;dominant-baseline:text-before-edge;text-decoration:none solid rgb(0, 0, 0);">1</text></g></g></g><g><g><g><text x="110" y="295.00001525878906" style="white-space:pre;stroke:none;fill:rgb(0,0,0);fill-opacity:1;font-size:15px;font-family:Arial, Helvetica, sans-serif;font-weight:400;font-style:normal;dominant-baseline:text-before-edge;text-decoration:none solid rgb(0, 0, 0);">4</text></g></g></g><g><g><g><text x="141.99481201171875" y="295.00001525878906" style="white-space:pre;stroke:none;fill:rgb(0,0,0);fill-opacity:1;font-size:15px;font-family:Arial, Helvetica, sans-serif;font-weight:400;font-style:normal;dominant-baseline:text-before-edge;text-decoration:none solid rgb(0, 0, 0);">to Evaluator</text></g></g></g></svg>
</svg>
